<?xml version="1.0" encoding="UTF-8"?>
<svg width="265px" height="224px" viewBox="0 0 265 224" version="1.1" xmlns="http://www.w3.org/2000/svg" xmlns:xlink="http://www.w3.org/1999/xlink">
    <!-- Generator: Sketch 55.2 (78181) - https://sketchapp.com -->
    <title>Sign Up Graphic</title>
    <desc>Created with Sketch.</desc>
    <defs>
        <linearGradient x1="38.9310815%" y1="134.393672%" x2="67.6427274%" y2="-2.0793218%" id="linearGradient-1">
            <stop stop-color="#010101" stop-opacity="0" offset="0%"></stop>
            <stop stop-color="#010101" offset="95%"></stop>
        </linearGradient>
        <linearGradient x1="104.308208%" y1="136.046767%" x2="-2.93207244%" y2="-33.8676035%" id="linearGradient-2">
            <stop stop-color="#010101" stop-opacity="0" offset="0%"></stop>
            <stop stop-color="#010101" offset="95%"></stop>
        </linearGradient>
        <linearGradient x1="90.1566683%" y1="46.1382509%" x2="25.0681604%" y2="55.3225762%" id="linearGradient-3">
            <stop stop-color="#010101" stop-opacity="0" offset="0%"></stop>
            <stop stop-color="#010101" offset="95%"></stop>
        </linearGradient>
        <linearGradient x1="40.6846375%" y1="64.6280717%" x2="88.277255%" y2="-17.9848203%" id="linearGradient-4">
            <stop stop-color="#010101" stop-opacity="0" offset="0%"></stop>
            <stop stop-color="#010101" offset="95%"></stop>
        </linearGradient>
        <linearGradient x1="77.0592395%" y1="-17.4678899%" x2="19.7712047%" y2="98.8256881%" id="linearGradient-5">
            <stop stop-color="#010101" stop-opacity="0" offset="0%"></stop>
            <stop stop-color="#010101" offset="95%"></stop>
        </linearGradient>
        <linearGradient x1="50.6443974%" y1="151.371077%" x2="48.6873387%" y2="-6.77758879%" id="linearGradient-6">
            <stop stop-color="#010101" stop-opacity="0" offset="0%"></stop>
            <stop stop-color="#010101" offset="95%"></stop>
        </linearGradient>
        <linearGradient x1="99.9517156%" y1="49.9718596%" x2="0.540479362%" y2="49.9718596%" id="linearGradient-7">
            <stop stop-color="#E4C5D5" offset="0%"></stop>
            <stop stop-color="#E9D3CF" offset="42%"></stop>
            <stop stop-color="#EFE8CA" offset="100%"></stop>
        </linearGradient>
        <linearGradient x1="-0.165973238%" y1="49.919276%" x2="99.5265307%" y2="49.919276%" id="linearGradient-8">
            <stop stop-color="#E4C5D5" offset="0%"></stop>
            <stop stop-color="#E9D3CF" offset="42%"></stop>
            <stop stop-color="#EFE8CA" offset="100%"></stop>
        </linearGradient>
        <linearGradient x1="62.6773022%" y1="23.6895887%" x2="40.468007%" y2="82.750083%" id="linearGradient-9">
            <stop stop-color="#010101" stop-opacity="0" offset="0%"></stop>
            <stop stop-color="#010101" offset="95%"></stop>
        </linearGradient>
        <linearGradient x1="-3071.69774%" y1="50.0380231%" x2="-2971.71318%" y2="50.0380231%" id="linearGradient-10">
            <stop stop-color="#E4C5D5" offset="0%"></stop>
            <stop stop-color="#E9D3CF" offset="42%"></stop>
            <stop stop-color="#EFE8CA" offset="100%"></stop>
        </linearGradient>
        <linearGradient x1="66.3915979%" y1="117.854616%" x2="1.12528132%" y2="-197.476197%" id="linearGradient-11">
            <stop stop-color="#010101" stop-opacity="0" offset="12%"></stop>
            <stop stop-color="#010101" offset="95%"></stop>
        </linearGradient>
        <linearGradient x1="-1928.53563%" y1="50.0159015%" x2="-1828.55751%" y2="50.0159015%" id="linearGradient-12">
            <stop stop-color="#E4C5D5" offset="0%"></stop>
            <stop stop-color="#E9D3CF" offset="42%"></stop>
            <stop stop-color="#EFE8CA" offset="100%"></stop>
        </linearGradient>
        <linearGradient x1="-5799.57533%" y1="56.9086351%" x2="-5895.06508%" y2="13.8172701%" id="linearGradient-13">
            <stop stop-color="#010101" stop-opacity="0" offset="12%"></stop>
            <stop stop-color="#010101" offset="95%"></stop>
        </linearGradient>
        <linearGradient x1="65.4108891%" y1="56.7896375%" x2="-30.0816322%" y2="14.0464141%" id="linearGradient-14">
            <stop stop-color="#010101" stop-opacity="0" offset="12%"></stop>
            <stop stop-color="#010101" offset="95%"></stop>
        </linearGradient>
    </defs>
    <g id="Hi-Fi-Design" stroke="none" stroke-width="1" fill="none" fill-rule="evenodd">
        <g id="iPhone-Sign-Up" transform="translate(-75.000000, -65.000000)" fill-rule="nonzero">
            <g id="Sign-Up-Graphic" transform="translate(75.000000, 65.000000)">
                <path d="M264.993783,162.372649 C265.416499,189.173196 244.227903,214.658201 217.808209,219.152166 C205.443792,221.264714 192.829588,219.228986 180.273028,218.672042 C152.959867,217.481333 125.709153,223.338851 98.4440283,223.953411 C92.9247139,224.078243 87.3957923,223.953411 81.8620672,223.56451 C63.6678008,222.187784 45.9003292,217.37172 29.503036,209.372031 C22.5090223,205.963148 15.6831339,201.891692 10.5913382,196.034174 C-0.332004672,183.483721 -1.38398888,165.11416 1.14269465,148.693904 C3.66937817,132.273648 9.22712121,116.223088 9.51053248,99.6011798 C9.71228288,87.9965721 7.32970678,76.5167966 6.71965201,64.9265926 C6.10959724,53.3363885 7.51704643,41.0452028 14.3429348,31.6635712 C21.1688232,22.2819396 32.5292919,17.1398068 43.9089749,14.9024269 C55.288658,12.665047 66.966163,12.9579229 78.5572036,12.2377362 C102.531876,10.7685554 126.006975,4.92544097 149.842343,2.01108561 C185.388842,-2.34364309 242.551454,-3.75040771 246.485586,42.7496446 C246.787559,46.5956194 246.870955,50.4556221 246.735373,54.3110412 C246.389515,67.15437 244.415243,80.0457113 246.048461,92.7930152 C249.103538,116.746424 264.609497,138.236794 264.993783,162.372649 Z" id="Path" fill="#339EF9" opacity="0.24"></path>
                <path d="M264.993801,162.516584 C265.415301,189.274765 244.287624,214.719484 217.943888,219.206345 C205.615019,221.315553 193.037082,219.283044 180.516623,218.72698 C153.281989,217.538153 126.109622,223.386412 98.922886,224 C92.2651053,217.715519 85.621694,211.426244 79.3710437,204.763063 C77.4551356,202.687411 75.4338526,200.386457 75.0602505,197.572581 C74.7920234,195.477754 75.467381,193.378133 76.1379488,191.379179 C87.7702357,157.257045 103.98186,124.875232 124.327828,95.1225917 C133.830732,81.2209929 144.205374,67.9905058 154.829085,54.9469712 C162.047269,46.0978845 171.39211,28.8790766 184.204746,28.0353933 C194.646445,27.345107 206.754984,36.9324166 215.81723,41.0309914 C226.086497,45.6760429 236.441981,50.1389354 246.787884,54.6353836 C246.443021,67.4584101 244.474425,80.3293731 246.102947,93.0565265 C249.149241,116.962483 264.61062,138.418882 264.993801,162.516584 Z" id="Path" fill="#339EF9" opacity="0.24"></path>
                <path d="M144.555729,33 L138.395168,31.1048187 L140.078462,16.9054632 L140.572097,16.9054632 C141.184204,16.4219986 142.971161,14.3285968 142.492336,12.7766754 C142.062873,11.3552895 139.752663,10.7848012 137.881787,10.5479036 C135.226033,10.2191476 133.488439,10.5140611 132.85165,11.3939666 C131.997662,12.5832896 133.123149,14.8168961 133.631593,15.5759355 L133.764874,15.774156 L132.836841,29.4997162 L126,27.6528814 L126.385035,26.2943459 L131.336191,27.6528814 L132.116134,16.0497308 C131.622499,15.2616835 130.141595,12.4624234 131.469473,10.5914154 C132.456742,9.2183759 134.64848,8.73007665 137.995323,9.14102156 C143.222915,9.79369879 144.224994,11.9112738 144.150948,13.574392 C144.076903,15.2375103 142.640426,17.2777309 141.559366,18.0367704 L140.122889,30.1233856 L145,31.6221259 L144.555729,33 Z" id="Path" fill="url(#linearGradient-1)"></path>
                <polygon id="Path" fill="#339EF9" points="194 200 73.496944 200 66 193.823416 73.496944 31.1765836 186.503056 25 194 31.1765836"></polygon>
                <polygon id="Path" fill="url(#linearGradient-2)" points="194 200 73.496944 200 66 193.823416 73.496944 31.1765836 186.503056 25 194 31.1765836"></polygon>
                <polygon id="Path" fill="url(#linearGradient-3)" points="190.556567 197.702113 71.6103956 198 66 194.468603 69.98608 31.178743 183.471273 25 191 31.178743"></polygon>
                <rect id="Rectangle" fill="#FFFFFF" x="66" y="25" width="120" height="169"></rect>
                <path d="M104.038195,36.2089564 C103.976451,36.6314413 103.947954,37.1583607 104.289921,37.3957118 C104.476277,37.5079193 104.689802,37.5670179 104.907362,37.5666046 C115.892509,38.5166419 126.956979,37.9028975 137.769476,35.7437482 C139.550556,35.3877216 141.706851,34.5712338 141.835088,32.7626185 C141.953827,31.1581251 140.410224,29.1976051 141.654606,28.1912365 C142.1212,27.9117988 142.654271,27.7626184 143.198208,27.7592575 C145.195822,27.4677933 146.957756,26.2972784 148,24.5692588 L116.819225,24.3176666 C113.789015,24.2939315 108.270041,23.0217297 106.104248,25.7417732 C104.427658,27.8257158 104.038195,33.731011 104.038195,36.2089564 Z" id="Path" fill="url(#linearGradient-4)"></path>
                <polygon id="Path" fill="#339EF9" points="139 33 106.218548 33 104 13.2154062 137.003307 13"></polygon>
                <polygon id="Path" fill="#339EF9" points="137 12 149 17.9919266 147.252473 25 138.381876 25"></polygon>
                <polygon id="Path" fill="url(#linearGradient-5)" points="137 12 149 17.9919266 147.252473 25 138.381876 25"></polygon>
                <path d="M129.913176,32 L123.60396,31.7530314 L121.423712,15.9373577 L121.877126,15.8211372 C122.325717,15.1141292 123.45443,12.3442071 122.591013,10.8042854 C121.809596,9.39995434 119.479817,9.45322207 117.661335,9.74861585 C115.071084,10.1650727 113.508251,10.9883012 113.146484,12.1262937 C112.664128,13.6565303 114.308962,15.7388144 114.98426,16.4119248 L115.162732,16.5862555 L117.926631,31.665866 L111,31.665866 L111,30.0872042 L116.040619,30.0872042 L113.706017,17.3513739 C113.050013,16.6395233 110.884235,14.0633021 111.651181,11.6468841 C112.210713,9.87936392 114.149784,8.71715887 117.439452,8.18932408 C122.53313,7.37093802 124.038081,9.36121417 124.414318,11.1820021 C124.790556,13.00279 123.970551,15.6177513 123.155369,16.7509013 L125.007616,30.2227948 L130,30.4213381 L129.913176,32 Z" id="Path" fill="url(#linearGradient-6)"></path>
                <rect id="Rectangle" fill="#339EF9" x="84" y="51" width="37" height="47"></rect>
                <rect id="Rectangle" fill="#339EF9" x="132" y="57" width="40" height="4" rx="2"></rect>
                <rect id="Rectangle" fill="#339EF9" x="132" y="65" width="40" height="4" rx="2"></rect>
                <rect id="Rectangle" fill="#339EF9" x="132" y="78" width="40" height="4" rx="2"></rect>
                <rect id="Rectangle" fill="#339EF9" x="132" y="86" width="40" height="4" rx="2"></rect>
                <rect id="Rectangle" fill="#339EF9" x="110" y="125" width="40" height="4" rx="2"></rect>
                <rect id="Rectangle" fill="#339EF9" x="110" y="134" width="40" height="4" rx="2"></rect>
                <rect id="Rectangle" fill="#339EF9" x="110" y="153" width="40" height="4" rx="2"></rect>
                <rect id="Rectangle" fill="#339EF9" x="110" y="161" width="40" height="4" rx="2"></rect>
                <rect id="Rectangle" fill="#339EF9" x="83" y="104" width="89" height="4" rx="2"></rect>
                <rect id="Rectangle" fill="#339EF9" x="83" y="112" width="89" height="4" rx="2"></rect>
                <rect id="Rectangle" fill="#339EF9" x="88" y="123" width="15" height="14"></rect>
                <rect id="Rectangle" fill="#339EF9" x="88" y="153" width="15" height="14"></rect>
                <path d="M91.9085208,88.9804019 C89.6657688,90.5490015 87.6545267,93.3688007 88.0500227,96 C99.0322727,95.4848001 109.455041,96.0874 119,95.954 C118.807075,93.5620007 117.799042,90.5214015 116.053072,88.7964019 C115.143593,87.9951181 114.096112,87.3493322 112.956627,86.8874024 C110.631882,85.7972027 108.273376,84.711603 105.721944,84.2056032 C100.628726,83.1798034 95.9165356,86.1836026 91.9085208,88.9804019 Z" id="Path" fill="#FFFFFF"></path>
                <path d="M110.985385,72.5634802 C111.065984,73.3274105 110.810562,74.0887009 110.284729,74.6517996 C110.163626,74.7950854 110.00672,74.9042062 109.829758,74.9682117 C108.919815,75.2620228 108.878868,73.4358734 109.138202,72.9160536 C109.447582,72.3239111 110.848894,71.3882355 110.985385,72.5634802 Z" id="Path" fill="url(#linearGradient-7)"></path>
                <path d="M94.0149309,71.5608767 C93.9334915,72.3249027 94.1878609,73.0866929 94.7130065,73.651486 C94.8371155,73.7920149 94.9936513,73.9006903 95.1692651,73.9682449 C96.0817823,74.2623783 96.1228456,72.4297014 95.8582156,71.9138367 C95.5570849,71.3346203 94.1518085,70.3843434 94.0149309,71.5608767 Z" id="Path" fill="url(#linearGradient-8)"></path>
                <path d="M101.328913,56.9392017 C102.201746,55.8626651 103.462905,55.1747162 104.838607,55.0247009 C106.171165,54.8835829 107.65387,55.3445684 108.36707,56.4735123 C108.8277,57.3393254 109.038904,58.3165675 108.977044,59.2958722 C109.059812,60.2038821 108.917992,61.1183444 108.564138,61.9582984 C108.131134,62.7500525 107.425715,63.3569378 106.579378,63.6658262 C104.627463,64.4372712 102.323639,63.8116481 100.812782,62.4192839 C99.3019239,61.0269197 100.146503,58.3786053 101.328913,56.9392017 Z" id="Path" fill="#606161"></path>
                <path d="M101.328913,56.9392017 C102.201746,55.8626651 103.462905,55.1747162 104.838607,55.0247009 C106.171165,54.8835829 107.65387,55.3445684 108.36707,56.4735123 C108.8277,57.3393254 109.038904,58.3165675 108.977044,59.2958722 C109.059812,60.2038821 108.917992,61.1183444 108.564138,61.9582984 C108.131134,62.7500525 107.425715,63.3569378 106.579378,63.6658262 C104.627463,64.4372712 102.323639,63.8116481 100.812782,62.4192839 C99.3019239,61.0269197 100.146503,58.3786053 101.328913,56.9392017 Z" id="Path" fill="url(#linearGradient-9)"></path>
                <path d="M106.316449,78.1479177 C106.316449,78.1479177 106.373795,84.6738223 107.812235,86.0461381 C109.250674,87.4184539 102.048918,93.8308216 99,86.6730593 C99,86.6730593 100.77296,83.5828806 100.166044,78.3749915 C99.5591277,73.1671025 106.316449,78.1479177 106.316449,78.1479177 Z" id="Path" fill="url(#linearGradient-10)"></path>
                <path d="M106,80.1712078 L106,81.4480884 C106,81.4480884 102.556639,86.2914288 101.147787,84.6667083 C99.7389347,83.0419877 100.153038,82.6765357 100.153038,82.6765357 L100,79 L106,80.1712078 Z" id="Path" fill="url(#linearGradient-11)"></path>
                <path d="M108.913385,69.0190289 C108.913385,69.0190289 109.945677,78.5127724 104.882755,80.3945848 C99.8198336,82.2763972 96.8027265,79.5759964 95.4138249,74.9937833 C94.0249234,70.4115701 96.1505058,61.1624622 101.51373,62.0610277 C106.876955,62.9595931 108.913385,69.0190289 108.913385,69.0190289 Z" id="Path" fill="url(#linearGradient-12)"></path>
                <path d="M110.392351,72.6813532 C110.622634,72.340358 110.771787,71.9470278 110.827463,71.5339186 C111.495733,67.7704365 110.194657,63.9201578 107.412068,61.4267286 C106.856886,60.9161348 106.213895,60.5201399 105.517225,60.2597632 C104.82272,60.0451653 104.09693,59.9624746 103.374416,60.0156282 C101.095237,60.0892179 98.8970647,60.9148724 97.0957035,62.3739725 C95.2979462,63.8663378 94.1814124,66.0763902 94.0171694,68.4675827 C93.9545058,69.168269 94.064001,69.8740619 94.3353158,70.5183169 C94.6137527,71.1687325 95.1707746,71.6432045 95.8371538,71.7975844 C97.002131,72.0075406 97.3202774,70.8845194 98.2653593,70.1374663 C99.6689463,69.0095625 100.136809,67.3347962 103.365059,67.6179928 C108.614474,68.0769667 108.988764,74.4830697 110.392351,72.6813532 Z" id="Path" fill="#606161"></path>
                <path d="M94.7001996,72.768149 C94.6433566,72.7116103 94.5977752,72.6430722 94.5662547,72.5667437 C94.5462786,72.4776914 94.5346971,72.3866701 94.5316883,72.2950808 C94.5202364,72.2053224 94.4805549,72.1226001 94.4193474,72.0608886 C94.3527574,72.0021938 94.2630906,71.9845209 94.1817032,72.0140501 C94.1130991,72.0488585 94.0612953,72.1135234 94.0391167,72.1920362 C94.0202867,72.2700699 94.0101327,72.3502646 94.0088711,72.4309123 C93.9796902,72.7419265 94.0227662,73.0559125 94.1341744,73.3442618 C94.2399165,73.5424041 94.3757722,73.7197622 94.5360091,73.8688524 C94.5918456,73.9432034 94.6726935,73.9903946 94.7606909,74 C94.8168,73.9960106 94.8707246,73.9749017 94.9162398,73.93911 C94.937452,73.927359 94.9564917,73.9114826 94.9724102,73.8922716 C94.9764972,73.8690619 94.9764972,73.8452236 94.9724102,73.8220139 C95.0091966,73.6084022 95.0091966,73.3892551 94.9724102,73.1756435 C94.9215584,73.0132184 94.8266887,72.8712003 94.7001996,72.768149 L94.7001996,72.768149 Z" id="Path" fill="url(#linearGradient-13)"></path>
                <path d="M109.29978,73.7667529 C109.356625,73.7103645 109.402207,73.6420086 109.433729,73.5658831 C109.453994,73.4787118 109.465583,73.3894483 109.468296,73.2996138 C109.478636,73.2086678 109.520291,73.1252721 109.584961,73.0660443 C109.647739,73.0031103 109.737745,72.9832887 109.818291,73.014659 C109.885942,73.0507285 109.937329,73.1147009 109.960882,73.1921719 C109.979692,73.2715903 109.989844,73.3531152 109.991129,73.4350842 C110.02031,73.7452715 109.977233,74.0584226 109.865822,74.3460053 C109.75995,74.5421635 109.624075,74.7174906 109.463975,74.8645297 C109.407154,74.938174 109.327103,74.9864388 109.239287,75 C109.182789,74.9944039 109.128885,74.9717412 109.083734,74.9346005 C109.060838,74.925989 109.041133,74.909602 109.027562,74.8878866 C109.023136,74.8647747 109.023136,74.8409277 109.027562,74.8178158 C108.990813,74.6063387 108.990813,74.3893123 109.027562,74.1778353 C109.078369,74.0145353 109.173166,73.8713809 109.29978,73.7667529 L109.29978,73.7667529 Z" id="Path" fill="url(#linearGradient-14)"></path>
            </g>
        </g>
    </g>
</svg>